<?xml version="1.0" encoding="UTF-8"?> <svg xmlns="http://www.w3.org/2000/svg" xmlns:xlink="http://www.w3.org/1999/xlink" width="143" height="88" viewBox="0 0 143 88"><defs><path id="a" d="M0 0h142.554v87.253H0z"></path></defs><g fill="none" fill-rule="evenodd"><mask id="b" fill="#fff"><use xlink:href="#a"></use></mask><path d="M82.131 50.106h32.823v-2.029H82.131v2.03zm0-9.778h32.823V38.3H82.131v2.03zm0-10.195h32.823v-2.028H82.131v2.028zm48.896 55.091H11.193c-4.823 0-8.788-3.745-9.138-8.48h138.417c-.508 4.761-4.55 8.48-9.445 8.48zM13.567 6.98a4.956 4.956 0 0 1 4.95-4.95h104.829a5.642 5.642 0 0 1 5.636 5.636v67.048H13.567V6.98zm117.445 67.734V7.666c0-4.226-3.44-7.667-7.666-7.667H18.517c-3.848 0-6.979 3.131-6.979 6.981v67.734H0v1.346c0 6.172 5.021 11.193 11.193 11.193h119.834c6.357 0 11.527-5.17 11.527-11.524v-1.015h-11.542zM49.75 58.91c-11.084 0-20.102-9.018-20.102-20.105 0-1.218.11-2.43.325-3.618l13.423 3.317a6.368 6.368 0 0 0 6.354 6.664 6.368 6.368 0 0 0 6.363-6.363c0-3.162-2.32-5.79-5.348-6.279V18.728c10.615.53 19.088 9.333 19.088 20.076 0 11.087-9.018 20.105-20.103 20.105zm-1.019-40.174v13.797a6.404 6.404 0 0 0-4.917 3.98l-13.377-3.309a20 20 0 0 1 18.294-14.468zm-3.227 19.198l.002-.009a4.344 4.344 0 0 1 4.24-3.445h.064a4.334 4.334 0 0 1 4.274 4.325 4.339 4.339 0 0 1-4.334 4.334 4.338 4.338 0 0 1-4.246-5.205zm5.257-21.208v-.046h-.893c-.04 0-.078-.006-.118-.006h-1.014v.05c-9.537.426-17.643 6.83-20.251 15.998l-.04-.01-.225.957-.014.048-.229.977.058.014c-.253 1.347-.416 2.715-.416 4.097 0 12.204 9.928 22.133 22.131 22.133 12.204 0 22.131-9.929 22.131-22.133 0-11.862-9.387-21.546-21.12-22.079z" fill="#8EADDF" mask="url(#b)"></path></g></svg> 