<?xml version="1.0" encoding="UTF-8"?> <svg xmlns="http://www.w3.org/2000/svg" xmlns:xlink="http://www.w3.org/1999/xlink" width="78" height="121" viewBox="0 0 78 121"><defs><path id="a" d="M0 0h78v121H0z"></path></defs><g fill="none" fill-rule="evenodd"><mask id="b" fill="#fff"><use xlink:href="#a"></use></mask><path d="M63.147 20.435l-1.719.985c-3.923-6.696-11.22-10.854-19.04-10.854V8.603c8.528 0 16.483 4.533 20.76 11.832zm-3.946 58.897H18.794c-1.99-6.483-9.696-19.041-11.306-21.629a36.134 36.134 0 0 1-5.5-19.176C1.987 18.365 18.59 1.963 39 1.963c20.41 0 37.013 16.402 37.013 36.564 0 6.789-1.9 13.417-5.477 19.145-.376.562-8.939 13.452-11.335 21.66zm-40.185 8.48h39.956v-6.51H19.016v6.51zm.002 8.485h39.956V89.78H19.018v6.517zm39.956 3.948c0 2.315-1.906 4.198-4.249 4.198H23.64c-2.55 0-4.624-2.048-4.624-4.565v-1.617h39.958v1.984zm-19.942 18.792c-7.254 0-13.196-5.587-13.686-12.631H52.72c-.49 7.044-6.433 12.63-13.688 12.63zM78 38.527C78 17.284 60.504 0 39 0 17.494 0 0 17.284 0 38.527a38.12 38.12 0 0 0 5.795 20.211c.095.151 9.513 15.203 11.234 21.66v19.48c0 3.505 2.816 6.35 6.327 6.498.48 8.142 7.317 14.624 15.676 14.624 8.35 0 15.18-6.467 15.675-14.594h.018c3.438 0 6.236-2.762 6.236-6.16V80.426c2.045-7.843 11.14-21.536 11.25-21.699A38.11 38.11 0 0 0 78 38.528z" fill="#8EADDF" mask="url(#b)"></path></g></svg> 